/* XPM */
static char *Collectible1713278540[] = {
/* columns rows colors chars-per-pixel */
"64 64 12 1 ",
"  c #D1A9BF",
". c #DCAEC1",
"X c #211F30",
"o c #CE8B16",
"O c #E1CA33",
"+ c #F7EC8A",
"@ c white",
"# c #BA570B",
"$ c #48475B",
"% c #62677A",
"& c #D8E1E4",
"* c #AFBBC3",
/* pixels */
"                                ............................... ",
"                               ...............................  ",
"                              ...............................   ",
"                             ...............................    ",
"                            ...............................     ",
"                           ...............................      ",
"                          ...............................       ",
"                         ...............................        ",
"                        ...............................         ",
"                       ...............................          ",
"                      ...............................           ",
"                     ...............................            ",
"                    ...............................             ",
"                   ...............................              ",
"                  ...............................               ",
"                 ...............................                ",
"                ...............................                 ",
"               ...............................                  ",
"              ...............................                   ",
"             ...............................                    ",
"            .....XXXXXXXXXXXXXXXXXXXXXXXXXXXXXX                 ",
"           .....XoO++++++++++++++++++++@+@@+@@@X                ",
"          .XXXXXXoOOOOOOOOOOOOOOOOOOOOO+O++O+++XXXXXX           ",
"         .X@++OoXXXXX######################XXXXXO++@@X          ",
"        .X@++OOoXXooOOOOOOOOOOOOOOOOOOOOOOOOOOXXOOO++@X         ",
"       ..X@+OXXXXooOOO+++++++++++++++++++++++OOXXXXO+@X         ",
"      ...X+OX...XooOO++O+++++++++++++@@++@@+++OX   XO+X         ",
"     ....X@OX...XooOO++++++++++++++++@@+@@@@++OX   XO+X         ",
"    .....X+OX...XooOO+O+++++++++++++++++@@@@++OX   XO@X         ",
"   ......X+OX...XooOO++++++++++++++++++++@@+++OX   XO@X         ",
"  .......X+OX...XooOO+++++++++++++++++++++++++OX   XO+X         ",
" ........X+OX...XooOO++++++++++++++++++++++@++OX   XO+X         ",
".........X+OX...XooOO+++++++++++++++++++++++++OX   XO+X         ",
".........X+OX...XooOO+++++++++++++++++++++++++OX   XO+X        .",
".........X+OX...XooOO++O++++++++++++++++++++++OX   XO+X       ..",
".........X++OXXXXooOOO+++OO++++++++++++++O+++OOXXXXO++X      ...",
".........XO+++OoXooOOOO++OO++O++++++++++++++OOOXO++++OX     ....",
"..........XOOOOooXooOOOOO+++++++++++++++++OOOOXOOOOOOX     .....",
"...........XXXXXXXoooOOOOOOOOOOOOOOOOOOOOOOOOoXXXXXXX     ......",
"..................XooooOOOOOOOOOOOOOOOOOOOOooX           .......",
"...................XXooooooooooooooooooooooXX           ........",
".....................XXXXXXXXXX##XXXXXXXXXX            .........",
".....................       XXOOOOXX                  ..........",
"....................        XO+++++X                 ...........",
"...................        XXX####XXX               ............",
"..................        XoO++++++@@X             .............",
".................         XoO++++++++X            ..............",
"................          XoOOOOOOOOOX           ...............",
"...............            XXX##O#XXX           ................",
"..............              XOOOOOOX           .................",
".............               XO+++++X          ..................",
"............               XOO+++++OX        ...................",
"...........          XXXXXXOOOOO++OOOXXXXXX ....................",
"..........          XOO++++++++++++++++@+@@X....................",
".........          XoOOOOOOOOOOOOOOOOOOOOOOOX...................",
"........           XooooooooooooooooooooooooX...................",
".......        XXXXXXXXXXXXXXXXXXXXXXXXXXXXXXXXXX...............",
"......         X$%%%@@@@%%%%@@@@%%%%@@@@%%%%@@@@X...............",
".....          XX$$$&&&&$$$$&&&&$$$$&&&&$$$$&&&@X...............",
"....           XX$$$&&&&$$$$&&&&$$$$&&&&$$$$&&&@X...............",
"...            XX$$$&&&&$$$$&&&&$$$$&&&&$$$$&&&@X...............",
"..             X*&&&$$$$&&&&$$$$&&&&$$$$&&&&$$$%X...............",
".              X*&&&$$$$&&&&$$$$&&&&$$$$&&&&$$$%X...............",
"               X****XXXX****XXXX****XXXX****XXX$X..............."
};
