/* XPM */
static char *Pink_2_1713279030[] = {
/* columns rows colors chars-per-pixel */
"64 64 12 1 ",
"  c #D1A9BF",
". c #DCAEC1",
"X c #211F30",
"o c #F7EC8A",
"O c #E1CA33",
"+ c #CE8B16",
"@ c #BA570B",
"# c #48475B",
"$ c #62677A",
"% c white",
"& c #D8E1E4",
"* c #AFBBC3",
/* pixels */
"                                ............................... ",
"                               ...............................  ",
"                              ...............................   ",
"                             ...............................    ",
"                            ...............................     ",
"                           ...............................      ",
"                          ...............................       ",
"                         ...............................        ",
"                        ...............................         ",
"                       ...............................          ",
"                      ...............................           ",
"                     ...............................            ",
"                    ...............................             ",
"                   ...............................              ",
"                  ...............................               ",
"                 ...............................                ",
"                ...............................                 ",
"               ...............................                  ",
"              ...............................                   ",
"             ...............................                    ",
"            ...............................                     ",
"           ...............................                      ",
"          ...............................                       ",
"         ...............................                        ",
"        ...............................                         ",
"       ...............................                          ",
"      ...............................                           ",
"     ...............................                            ",
"    .............XX................                             ",
"   ..............XoX..............                              ",
"  ...............XooX............                               ",
" ................XoOoX..........                                ",
".......XXXXXXXXXXoOOOoX........                                 ",
"......XOoooooooooOOoOOoX......                                 .",
"......X+OOOOOoOOOOOOOOOoX....                                 ..",
"......X+O+OOOOOOOO++O+OOX...                                 ...",
"......X@+++++++++O++OO+X...                                 ....",
".......XXXXXXXXXX+OOO+X...                                 .....",
".............X+X.X+O+X...                                 ......",
".............X+X.X++X...                                 .......",
".............XOX.X+X...                                 ........",
".............X+X.XX...                                 .........",
".............XOX.....                                 ..........",
".............XOX....                                 ...........",
".............XOX...                                 ............",
".............XOX..                                 .............",
".............XOX.                                 ..............",
".............XOX                                 ...............",
".............XOX                                ................",
".............XOX                               .................",
".............XOX                              ..................",
"............ XOX                             ...................",
"...........  XOX                            ....................",
"..........   X+X                           .....................",
".........    XOX                          ......................",
"........     X+X                         .......................",
".......      X+X          XXXXXXXXXXXXXXXXXXXXXXXXXXXXXXXXXX....",
"......       XOX          X#$$$%%%%$$$$%%%%$$$$%%%%$$$$%%%%X....",
".....        X+X          XX###&&&&####&&&&####&&&&####&&&%X....",
"....         X+X          XX###&&&&####&&&&####&&&&####&&&%X....",
"...         XXXXX         XX###&&&&####&&&&####&&&&####&&&%X....",
"..         X@++OOX        X*&&&####&&&&####&&&&####&&&&###$X....",
".          XX@++XX        X*&&&####&&&&####&&&&####&&&&###$X....",
"          X@@++++OX       X****XXXX****XXXX****XXXX****XXX#X...."
};
