/* XPM */
static char *af4cf50633b9400ea093aa28add7af4e2bbx1P3PFgyjlog1[] = {
/* columns rows colors chars-per-pixel */
"64 64 212 2 ",
"   c #221F30",
".  c #2C1F33",
"X  c #361E35",
"o  c #1E2D2E",
"O  c #1E2C30",
"+  c #24262F",
"@  c #282B2E",
"#  c #232B2D",
"$  c #22332A",
"%  c #2E352D",
"&  c #243929",
"*  c #2A3B2B",
"=  c #343E2B",
"-  c #232131",
";  c #292334",
":  c #2D283A",
">  c #2B2837",
",  c #372436",
"<  c #363B33",
"1  c #2E363E",
"2  c #451E39",
"3  c #5B1D3E",
"4  c #611D3F",
"5  c #432235",
"6  c #4C2337",
"7  c #5A2538",
"8  c #5E2B38",
"9  c #532438",
"0  c #622D39",
"q  c #64243B",
"w  c #76263D",
"e  c #70303A",
"r  c #255B1D",
"t  c #2A5E1E",
"y  c #266918",
"u  c #29651B",
"i  c #257917",
"p  c #397819",
"a  c #34671E",
"s  c #174A29",
"d  c #0D572B",
"f  c #234225",
"g  c #244D21",
"h  c #2B4727",
"j  c #3A4A2A",
"k  c #275522",
"l  c #385824",
"z  c #374937",
"x  c #3C5837",
"c  c #0C6328",
"v  c #136728",
"b  c #156D21",
"n  c #1A7023",
"m  c #2D6422",
"M  c #2C7625",
"N  c #287425",
"B  c #357C24",
"V  c #386322",
"C  c #166D1F",
"Z  c #485D27",
"A  c #425328",
"S  c #455828",
"D  c #475B29",
"F  c #4A563C",
"G  c #4E6925",
"H  c #486325",
"J  c #557224",
"K  c #5B7A25",
"L  c #556B2D",
"P  c #697E3A",
"I  c #427A1B",
"U  c #3A3344",
"Y  c #373042",
"T  c #362F41",
"R  c #691D41",
"E  c #751C44",
"W  c #43394B",
"Q  c #483B4D",
"!  c #483E50",
"~  c #5D2F46",
"^  c #702C46",
"/  c #3E414C",
"(  c #47464A",
")  c #4A4957",
"_  c #4E4353",
"`  c #55485A",
"'  c #544757",
"]  c #5B5858",
"[  c #4D5845",
"{  c #6D4C56",
"}  c #4F6557",
"|  c #636158",
" . c #5D4E61",
".. c #645365",
"X. c #6E5B6D",
"o. c #685768",
"O. c #715D70",
"+. c #7C5E74",
"@. c #745A6B",
"#. c #7D677A",
"$. c #7C6676",
"%. c #6E6565",
"&. c #85293E",
"*. c #8A293F",
"=. c #8B363E",
"-. c #8F1C4A",
";. c #872244",
":. c #9C2C41",
">. c #962744",
",. c #943744",
"<. c #AA224C",
"1. c #A52649",
"2. c #BC294A",
"3. c #B32749",
"4. c #AB3D43",
"5. c #A33442",
"6. c #B83247",
"7. c #C72F47",
"8. c #C32C49",
"9. c #C92F48",
"0. c #C3324B",
"q. c #CC3148",
"w. c #CA3B48",
"e. c #D53B49",
"r. c #D73C49",
"t. c #914149",
"y. c #BB4145",
"u. c #836B7D",
"i. c #866777",
"p. c #88737D",
"a. c #825D6E",
"s. c #DC444A",
"d. c #D34648",
"f. c #E1464A",
"g. c #2A870F",
"h. c #288310",
"j. c #2E8810",
"k. c #318911",
"l. c #3A8816",
"z. c #3D8123",
"x. c #2F8233",
"c. c #428E15",
"v. c #48891B",
"b. c #58861E",
"n. c #459115",
"m. c #4C9316",
"M. c #4E9218",
"N. c #549419",
"B. c #5E951F",
"V. c #5D9919",
"C. c #529517",
"Z. c #659B1C",
"A. c #6B9D1C",
"S. c #67941E",
"D. c #709E1D",
"F. c #6FA01C",
"G. c #72A11D",
"H. c #438521",
"J. c #558F20",
"K. c #579120",
"L. c #618621",
"P. c #658C20",
"I. c #6E902B",
"U. c #7AA823",
"Y. c #3F874F",
"T. c #488D57",
"R. c #4A8B63",
"E. c #5C9371",
"W. c #6A9C7D",
"Q. c #82AF29",
"!. c #86B22C",
"~. c #88B42D",
"^. c #94BD37",
"/. c #8BB531",
"(. c #9BC43C",
"). c #97C139",
"_. c #A0C83F",
"`. c #9BC141",
"'. c #A4CC42",
"]. c #866E81",
"[. c #8C7386",
"{. c #8F7688",
"}. c #94798B",
"|. c #9A7E92",
" X c #7B8886",
".X c #948693",
"XX c #AC8A9D",
"oX c #A48598",
"OX c #B18D9F",
"+X c #87B393",
"@X c #AD8DA2",
"#X c #B38EA1",
"$X c #A09FA6",
"%X c #B491A5",
"&X c #B593A8",
"*X c #BB97AA",
"=X c #BF9BB0",
"-X c #C29BAD",
";X c #C29DB2",
":X c #C99FB2",
">X c #CCA2B5",
",X c #CCA5BB",
"<X c #C6A0B6",
"1X c #D1A9BF",
"2X c #D9ACBF",
"3X c #D2A6B9",
"4X c #AAC8B6",
"5X c #B5CCBF",
"6X c #DCAEC1",
"7X c #B8CEC1",
"8X c #F6F6F6",
"9X c #C5D6CD",
/* pixels */
"1X1X1X@Xu.............{.*X1X1X1X1X1X<X|.O.......................o.o.u.#X6X6X6X6X6X6X#Xu.o.o.o.o.o.o.....#.XX2X6X6X6X6X6X6X6X6X1X",
"1X,X,X|.` - - - - - ; o.XX,X1X1X1X,X=X$.Y - - - - - - - - - - - - - ' |.2X2X6X6X2X2X}.' - - - - - - + + ! [.2X2X6X6X6X6X6X6X1X1X",
"<XXX{.a.{ e e e e e e { i.|.%X,X*XoXu.| F A A A A A A A A A A A A A [ %.{.OX>X>XOX{.%.[ A A A A A A A A F %.[.XX>X6X6X6X6X1X1X1X",
"*X]._ ^ t.y.y.y.y.y.y.,.~  .|.<XoXX.( F K L.L.L.L.L.L.L.L.L.L.L.L.L.L F _ ].-X*Xu._ F L L.L.L.L.L.L.L.L.K F ! #.&X6X6X6X1X1X1X1X",
"&XO.: 8 4.f.f.f.f.f.s.,.7 Q +.@Xu.! @ A K P.P.P.P.P.P.P.P.P.P.P.P.P.G j ; ..|.|...- j G P.P.P.P.P.P.P.P.J j - o.XX6X6X1X1X1X1X1X",
"&XO.: 7 5.r.r.r.r.r.r.5.E ^ { X.` Y + = A S S S S S S S S S S S S S j % - W ....W - % j S S S S S S S S j % + o.XX6X1X1X1X1X1X1X",
"&XO.: 7 :.q.q.q.q.q.q.3.1.;.R : ; - - + + + + + + + + + + + + + + + + - - - ; ; - - - + + + + + + + + + + -   o.XX1X1X1X1X1X1X1X",
"=X{...{ ,.>.>.>.:.3.2.>.;.R 3 2 6 9 7 8 0 0 0 0 0 0 0 8 7 8 8 0 8 7 7 7 7 7 7 7 7 7 8 0 0 8 7 7 8 0 0 0 0 0 0 { i.oX&X,X1X1X1X1X",
"<X&XoXi.{ 9 9 9 q ;.<.;.3 2 4 E ;.>.:.5.4.4.4.4.4.4.4.5.:.5.4.4.5.:.:.:.:.:.:.:.:.:.5.4.4.5.:.5.4.4.4.4.4.4.4.t.{ o.|.<X1X1X1X1X",
",X<X;X{.` , , . 2 R -.R X X 3 -.>.3.6.w.s.s.s.s.s.s.s.e.q.e.r.s.r.q.q.q.q.q.q.q.q.q.e.r.s.r.q.e.r.s.s.s.s.d.d.=.6 U #.;X1X1X1X1X",
";XoXu.@.^ w q 4 3 3 3 2 . . 2 3 q w &.:.6.0.0.0.0.0.0.0.q.q.0.0.0.q.q.q.q.q.q.q.q.q.q.0.0.0.q.q.0.0.0.0.6.5.=.8 , U #.;X1X1X1X1X",
"*X#.W ~ ,.6.1.-.E 3 . .     . . . , 5 R >.<.<.<.<.<.<.2.9.2.3.<.2.9.q.q.q.q.q.q.q.q.2.<.<.2.9.8.3.<.<.<.;.q , , - U #.;X1X1X1X1X",
"&XO.: 7 :.q.2.<.;.9   . X 2 2 2 5 6 9 E >.<.<.<.<.<.<.2.9.8.3.<.2.9.q.q.q.q.q.q.q.q.2.3.<.2.9.8.3.<.<.<.>.w 6 , ; U #.;X1X1X1X1X",
"&XO.: 8 5.r.q.2.>.7   2 3 E E E E ;.>.1.3.2.2.2.2.2.2.8.q.8.8.2.8.9.q.q.q.q.q.q.q.q.8.2.2.8.9.8.8.2.2.2.3.1.>.q , U #.;X1X1X1X1X",
"&XO.: 8 4.f.r.q.5.q   3 E -.-.-.<.2.7.7.7.7.7.7.7.7.7.7.7.7.7.7.7.7.7.7.7.7.7.7.7.7.7.7.7.7.7.7.7.7.7.7.7.7.7.*.6 U #.;X1X1X1X1X",
"&XO.: 8 4.f.r.q.5.q   X 3 R R R E w &.&.&.&.&.&.&.&.&.&.&.&.&.&.&.&.&.&.&.&.&.&.&.&.&.&.&.&.&.&.&.&.&.&.&.&.&.q , U #.;X1X1X1X1X",
"&XO.: 8 4.f.r.q.5.q   . X X X X , 5 5 5 5 5 5 5 5 5 5 5 5 5 5 5 5 5 5 5 5 5 5 5 5 5 5 5 5 5 5 5 5 5 5 5 5 5 5 , ; U #.;X1X1X1X1X",
"&XO.: 8 4.s.w.6.*.9   + # $ $ $ $ $ $ $ $ $ o O 1 ( ) ) ) ) ) ) ) ) / 1 o o $ $ o O 1 / ) ) ) ) ) ) ) ) ( T O o $ z %.oX*X<X1X1X",
"&XO.: 8 4.s.4.w 7 , - & g r r r r r r r r k s s } .X$X$X$X$X$X$X$X$X X} s s k k s s }  X$X$X$X$X$X$X$X$X.X} s s k l [ o.[.%X1X1X",
"&XO.: 8 4.d.=.5 -   + f y h.h.h.h.h.h.h.h.i b c W.9X8X8X8X8X8X8X8X8X5XE.c C i i C c E.7X8X8X8X8X8X8X8X8X9XW.c b i i k @ ` |.1X1X",
"=X}.o.{ t.,.0 , # & f m p c.c.c.c.c.c.c.c.l.i n R.+X4X4X4X4X4X4X4X4X+XT.b i l.l.i b T.+X4X4X4X4X4X4X4X4X+XT.b i l.l.k # ` |.1X1X",
"<X&XoXi.{ 9 , ; $ g y p N.V.V.V.V.V.V.V.V.M.l.i x.T.R.R.R.R.R.R.R.R.Y.x.i l.C.C.l.i x.Y.R.R.R.R.R.R.R.R.T.x.i l.M.b.l @ ` |.1X1X",
"1X1X1XoX..1 > - & u k.n.Z.G.G.G.G.G.G.G.G.Z.n.k.i n v v v v v v v v n i k.m.Z.Z.n.k.i n v v v v v v v v n i k.n.Z.P.Z @ ` |.1X1X",
"1X1X1X&X|.O._ : * V m.V.A.G.G.G.G.G.G.G.G.A.V.m.v.H.z.z.z.z.z.z.z.z.v.v.m.V.A.A.V.m.v.H.z.z.z.z.z.z.z.z.H.v.m.V.A.P.Z @ ` |.1X1X",
"1X1X1X,X;X@XO.Y = G A.A.G.G.G.G.G.G.G.G.G.G.F.A.A.Z.Z.Z.Z.Z.Z.Z.Z.Z.Z.A.A.A.G.G.A.A.A.Z.Z.Z.Z.Z.Z.Z.Z.Z.Z.A.A.A.G.P.Z @ ` |.1X1X",
"1X1X1X1X1X;X#.U = J G.G.G.G.G.G.G.G.G.G.G.A.B.J.J.J.J.J.J.J.J.J.J.J.J.J.J.J.J.J.J.J.J.J.J.J.J.J.J.J.J.J.B.Z.G.G.G.P.Z @ ` |.1X1X",
"1X1X1X1X1X;Xu.U = J G.G.G.G.G.G.G.G.G.G.G.S.H.M M M M M M M M M M M M M M M M M M M M M M M M M M M M M B J.G.G.G.P.Z @ ` |.1X1X",
"1X1X1X1X1X>Xu.U = J G.G.G.G.G.G.G.G.G.G.F.J.M c c c c c c c c c c c c c c c c c c c c c c c c c c c c c N H.A.G.G.P.Z @ ` |.1X1X",
"1X1X1X1X6X>Xu.U = J G.G.G.G.G.G.G.G.F.Z.N.M.l.B B B B B B B B B B B B B B B B B B B B B B B B B B B B B z.v.C.V.A.P.Z @ ` |.1X1X",
"1X1X1X6X6X>Xu.U = J G.G.G.G.G.G.G.G.A.C.l.c.N.B.B.B.B.B.B.B.B.B.B.B.B.B.B.B.B.B.B.B.B.B.B.B.B.B.B.B.B.B.N.c.k.m.Z.P.Z @ ` |.1X1X",
"1X1X6X6X6X>Xu.U = J G.G.G.G.G.G.G.G.A.N.l.n.V.G.G.G.G.G.G.G.G.G.A.Z.Z.Z.Z.Z.Z.Z.Z.Z.Z.Z.Z.A.G.G.G.G.G.G.Z.m.l.m.Z.P.Z @ ` |.1X1X",
"1X6X6X6X6X>Xu.U = J G.G.G.G.G.G.G.G.F.Z.N.V.Z.G.G.G.G.G.G.G.G.A.V.m.n.n.n.n.n.n.n.n.n.n.m.V.A.G.G.G.G.G.A.Z.C.V.A.P.Z @ ` |.1X1X",
"6X6X6X6X6X>Xu.U = J G.G.G.G.G.G.G.G.G.G.G.G.G.G.G.G.G.G.G.G.G.A.m.k.g.g.g.g.g.g.g.g.g.g.k.m.A.G.G.G.G.G.G.G.G.G.G.P.Z @ ` |.1X1X",
"6X6X6X6X6X3XoXO.] L J b.N.V.Z.G.G.G.G.G.G.G.G.G.G.G.G.G.G.G.G.A.V.n.n.n.n.n.n.n.n.n.n.n.n.V.A.G.G.G.G.G.A.Z.V.b.K L [ ] u.@X1X6X",
"6X6X6X6X6X2X-X#Xp.] j l p n.V.F.G.G.G.G.G.G.G.G.G.G.G.G.G.G.G.G.A.Z.V.V.V.V.V.V.V.V.V.V.Z.A.G.G.G.G.G.G.Z.C.l.p l F %.|.%X;X6X6X",
"6X6X6X6X6X6X6X6X#XO.Y j u p M.Z.A.A.A.F.G.G.G.G.G.G.G.G.G.G.G.G.G.G.G.G.G.G.G.G.G.G.G.G.G.G.G.F.A.A.A.A.V.c.i k z _ [.;X1X6X6X6X",
"6X6X6X6X6X6X6X6X-XoX#.] x t p n.m.m.C.V.A.G.G.G.G.G.G.G.G.G.G.G.G.G.G.G.G.G.G.G.G.G.G.G.G.G.G.Z.V.m.m.m.v.a g [ %.].XX<X6X6X6X6X",
"6X6X6X6X6X6X6X6X2X>X:Xp.( & t j.k.k.k.C.A.G.G.G.G.G.G.G.G.G.G.G.G.G.G.G.G.G.G.G.G.G.G.G.G.G.G.V.n.k.j.k.i g # ] |.;X<X6X6X6X6X6X",
"6X6X6X6X6X6X6X6X6X6X2XoXO.) x u y y y v.Z.G.G.G.G.G.G.G.G.G.G.G.G.G.G.G.G.G.G.G.G.G.G.G.G.G.G.B.p y y y m F ' u.%X1X6X6X6X6X6X6X",
"6X6X6X6X6X6X6X6X6X6X6X-XXXp.] h f f h G S.G.G.G.G.G.G.G.G.G.G.G.G.G.G.G.G.G.G.G.G.G.G.G.G.G.G.b.V f f f z %.|.@X;X6X6X6X6X6X6X6X",
"6X6X6X6X6X6X6X6X6X6X6X2X3X%XO.> + + % H S.G.G.G.G.G.G.G.G.G.G.G.G.G.G.G.G.G.G.G.G.G.G.G.G.G.G.K j + + - Q ].;X<X2X6X6X6X6X6X6X6X",
"6X6X6X6X6X6X6X6X6X6X6X*X|.$.| D S S H K A.G.G.G.G.G.U.U.!.~.~.~.~.~.~.~.~.~.~.~.~.~.~.~.!.U.G.P.J A = @ T  .u.oX:X6X6X6X6X6X6X6X",
"6X6X6X6X6X6X6X6X6X6X2X|...( L L.P.P.P.S.D.G.G.G.G.G.U.~.).(.(.(.(.(.(.(.(.(.(.(.(.(.(.(.).!.U.A.S.L.D % ; 1 W $.%X6X6X6X6X6X6X6X",
"6X6X6X6X6X6X6X6X3X-X#Xi.( j J A.G.G.G.G.G.G.G.G.U.U.!.^.'.'.'.'.'.'.'.'.'.'.'.'.'.'.'.'.(.^.Q.U.U.A.G % + # & ] {.*X:X2X6X6X6X6X",
"6X6X6X6X6X6X6X6X-X}.o.| L J P.D.G.G.G.G.G.G.G.G.U.~.^.(.'.'.'.'.'.'.'.'.'.'.'.'.'.'.'.'.'.).^.!.U.A.G % # f r x ] $.oX3X6X6X6X6X",
"6X6X6X6X6X6X6X6XXXo.; A L.D.G.G.G.G.G.G.G.G.G.G.!.).'.'.'.'.'.'.'.'.'.'.'.'.'.'.'.'.'.'.'.'.'.^.Q.A.G % & r h.u & U u.>X6X6X6X6X",
"6X6X6X6X6X6X6X6XXXo.- A L.G.G.G.A.V.N.b.J K S.G.!.).'.'.'.'.'.'.'.'.'.'.'.'.'.'.'.'.'.'.'.'.'.).Q.A.G % & t h.u & U u.>X6X6X6X6X",
"6X6X6X6X6X6X6X6XXXo.- A L.G.G.G.Z.n.l.a j S K G.!.).'.'.'.'.'.'.'.'.'.'.'.'.'.'.'.'.'.'.'.'.'.).Q.A.G % & t h.u & U u.>X6X6X6X6X",
"6X6X6X6X6X6X6X6XXXo.- j b.A.A.A.N.l.y k * j K G.!.).'.'.'.'.'.'.'.'.'.'.'.'.'.'.'.'.'.'.'.'.'.).Q.A.G % & t h.u & U u.>X6X6X6X6X",
"6X6X6X6X6X6X6X6XXXo.- h I n.m.n.p m k l H J P.G.!.).'.'.'.'.'.'.'.'.'.'.'.'.'.'.'.'.'.'.'.'.'.).Q.A.G % & t h.r & U u.>X6X6X6X6X",
"6X6X6X6X6X6X6X6XXXo.+ g i j.j.j.u f % Z L.A.A.G.!.).'.'.'.'.'.'.'.'.'.'.'.'.'.'.'.'.'.'.'.'.'.).Q.A.G % & r h.u & U u.>X6X6X6X6X",
"6X6X6X6X6X6X6X6X*X].` [ m y y y r g h G S.G.G.G.Q./.).(.'.'.'.'.'.'.'.'.'.'.'.'.'.'.'.'.'.(.)./.U.A.G % # g u x [ o.|.3X6X6X6X6X",
"6X6X6X6X6X6X6X6X>X&X|.%.z f f f g r u v.Z.G.G.G.U.U.~.^.'.'.'.'.'.'.'.'.'.'.'.'.'.'.'.'._.^.!.U.U.A.G % + $ & [ p.oX*X2X6X6X6X6X",
"6X6X6X6X6X6X6X6X6X6X,X{._ > ; - f y k.m.A.G.G.G.D.A.U./.^.`.`.`.`.`.`.`.`.`.`.`.`.`.`.`.^.!.U.G.G.A.G % - ; : o.OX6X6X6X6X6X6X6X",
"6X6X6X6X6X6X6X6X6X6X,XXX]...W - f y k.m.A.G.G.D.P.J L L P P P P P P P P P P P P P P P P I.I.D.G.G.A.G % : ' O.|.-X6X6X6X6X6X6X6X",
"6X6X6X6X6X6X6X6X1X1X1X<X*X|...; f y k.m.A.G.G.D.J j % < < < < < < < < < < < < < < < < < j J S.G.G.A.G % W #.*X:X3X6X6X6X6X6X6X6X",
"6X6X6X6X6X6X6X1X1X1X1X1X1X%XX.> f y k.m.A.A.Z.Z.H % ; Y Q ! ! ! ! ! ! ! ! ! ! W : - + $ h G S.A.Z.B.H % ! {.2X6X6X6X6X6X6X6X6X6X",
"6X6X6X6X6X6X1X1X1X1X1X1X6X%XX.> f y k.m.A.Z.N.c.V & T  .[.[.[.[.[.[.[.[.[.[.[.$._ - & g u v.Z.Z.C.c.l $ ! {.2X6X6X6X6X6X6X6X6X6X",
"6X6X6X6X6X1X1X1X1X1X1X1X6X%XX.> f y k.m.A.V.n.h.r & W ].<X1X1X1X1X1X1X1X1X1X6X%XX.; f y k.m.A.V.c.h.r $ ! {.2X6X6X6X6X6X6X6X6X6X",
"6X6X6X6X1X1X1X1X1X1X1X1X1X%XX.> f y j.l.m.v.p t x ] $.oX,X1X1X1X1X1X1X1X1X6X6X&XX.; f y j.n.C.v.p t F ] u.XX2X6X6X6X6X6X6X6X6X6X",
"6X6X6X1X1X1X1X1X1X1X1X1X1X%XX.> f y g.k.k.p k * ] {.@X=X,X1X1X1X1X1X1X1X6X6X6X&XX.; f y g.k.l.p k * | }.*X>X6X6X6X6X6X6X6X6X6X6X",
"6X6X1X1X1X1X1X1X1X1X1X1X1X&X#.W z m i i i m z W $.%X1X1X1X1X1X1X1X1X1X6X6X6X6X*X#.W z m i i i m z Q u.-X6X6X6X6X6X6X6X6X6X6X6X6X",
"6X1X1X1X1X1X1X1X1X1X1X1X1X;XoX].| x g g g x | u.oX=X1X1X1X1X1X1X1X1X6X6X6X6X6X>XoX].| x g g g F | ].XX>X6X6X6X6X6X6X6X6X6X6X6X6X",
"1X1X1X1X1X1X1X1X1X1X1X1X1X,X<X;X{.' + + + _ [.;X<X,X1X1X1X1X1X1X1X6X6X6X6X6X6X2X3X>X{._ + + + ' }.>X3X2X6X6X6X6X6X6X6X6X6X6X6X6X"
};
