/* XPM */
static char *WallNew1713278187[] = {
/* columns rows colors chars-per-pixel */
"64 64 84 1 ",
"  c None",
". c #211F30",
"X c #272637",
"o c #2D2C3D",
"O c #302F41",
"+ c #323243",
"@ c #3B3B4B",
"# c #444555",
"$ c #474857",
"% c #4B4957",
"& c #464659",
"* c #464858",
"= c #4D4D5C",
"- c #4F505D",
"; c #51515F",
": c #4E4F62",
"> c #4F5160",
", c #535466",
"< c #595764",
"1 c #525568",
"2 c #57586A",
"3 c #595C6C",
"4 c #5C5F71",
"5 c #605F6E",
"6 c #5E6273",
"7 c #61606F",
"8 c #636575",
"9 c #626678",
"0 c #666A7B",
"q c #6C6D7C",
"w c #6C717F",
"e c #6A6E80",
"r c #6B7182",
"t c #747584",
"y c #737986",
"u c #747A89",
"i c #787E8C",
"p c #7A808D",
"a c #7D8492",
"s c #82818B",
"d c #838B96",
"f c #888C95",
"g c #858D99",
"h c #8B949E",
"j c #8D95A1",
"k c #8F98A3",
"l c #939BA4",
"z c #9E9DA4",
"x c #959EA9",
"c c #97A1AB",
"v c #9CA4AE",
"b c #A5A4AC",
"n c #A3AAB2",
"m c #A9A9B0",
"M c #A4AFB8",
"N c #AAB1B7",
"B c #A7B2BB",
"V c #ACB3BB",
"C c #B1B5BB",
"Z c #B2B8BF",
"A c #AFBBC3",
"S c #B3BDC4",
"D c #BBC0C7",
"F c #B7C2C9",
"G c #B9C4CB",
"H c #C0C1C6",
"J c #C7C7CB",
"K c #C8C7CB",
"L c #C0C9CF",
"P c #CACACE",
"I c #C3CED3",
"U c #CDCED2",
"Y c #C6D0D6",
"T c #CED7DC",
"R c #CED8DC",
"E c #D1D1D6",
"W c #D5D5D8",
"Q c #D8E1E4",
"! c #E2E8EB",
"~ c #E9EEF0",
"^ c #F1F1F2",
"/ c #F5F7F8",
"( c #F5F8F8",
") c #FEFEFE",
/* pixels */
"  ........................................................X..X  ",
"  ,<<<<%@o@#%%==-------=$$==####*##*#*#######$------$@o@-;<;;;  ",
".;bKKKKb5<ihhlnMMNBBNNNnlcvnhhkahhhahghhhhhhhlnBNVNncp;8bJKKKb<.",
".<K))//Uw7jMMSIWRRRRRRRYFGYYFFFAFAAFAFAABBAAAGGQRRRGAh6wU((()K<.",
".<K(~!!Se3alkvAFFGGFGGGFZFFFFZFAAFAFAAFMccMAAFFGGGGAva3wD!!~(K<.",
".<K/!QQC8*8rwydhhjjhhhhhhghhhhhhakahhhhappakahhhhhhgp8=8ZQQ!(K<.",
".<K/!QQC<O+@@@###########$$#####**#*#*##@@#***#*$$##@@o2VQQ!^J<.",
".%zHCNNh,++++O+++++++++Oo+++OO+++++++++o++o+++++o+o+oo+;hNNCHb$.",
".o%;,-->,,1111111111111111111111111111111111111111111111;;;;<$oX",
".o@#@+X+19errrrrrrrrrrrwrerrrrrrrrrrrr00errrwwrrrrrrrr61oX+@#@X.",
".@wfy3++1euaaaaapaaaaaaaaaaaaaaaaaaaaprraaaaaaaaaaaaapw>oo5yfw@.",
".$cAvy@+1raggggappdggggggggggdgghahaaappaaaagappgaajaaw1+#yvSl$.",
".=nIAd#+1rpggggp88pgggggggggggggahahahaaakakaa88aggggaw1o#fSIn=.",
".;NRGh#+1raggay068pggggggggggggghahhhaahkakaaa860uaggae1o$hGRN-.",
".-NRGh#+1raggy-$0paggggggggggggghhaaaahaaaaahaa0*-yggar,+$hFRN-.",
".-NRGh#+1raggr@+3wrwwwwwwwwruidgaaappwrwprpwrww6+@rggar2o$hFRN-.",
".-NRFh#o1raaap@X+@@@@@@@@@@#,8iggi9:#@@@@@@@@@@+X@wggar1+#hGRN-X",
".=nYFh$+1raaap*+O+$<<<<<<%++&4iggi4&++%<<<<<<=+o+*yggar1+#jGRM-.",
".$lFFh$o1raaaa0:#6vJKKJJKb7&20agga02&7bPKKKKKb7&>6pagae1+#hGRN-.",
".$lFFh$+1rpaaap61yE))))))Et:9taggat9,tE))))))Et:6pagaar1+#hGRM-.",
".-vYFh#+10rpaaar2tE))))))Et2tadggddr2tE))))))Et2yaahgar1o#hGRN=.",
".-nYFg#+10rrahap2tE))))))Uq=6wwwewq8%qU))))))Et2aaggaay1+#hFYn%.",
".$kFFh#+1raahhap2tE))))))P5o+@@@@@@+o7P))))))Et2pajgjar1+$hFFl$.",
".#hFBh#+1raahaap2tE))))^Wmq-;-$####$#8mW^))))Et2paajaar1+#hAAh#.",
".#hFFa#+1raaahap2tE))))WsqlmBnlhhhhhha8sW))))Et2pgggaa01+#hFZh$.",
".#hBFh#+1raakakp5rCEEEEb%=mRRYFASSAASh#=nEEEECr4pggggar1+#hZBa#.",
".#hFBh#+1rajahaa09qtttt4+*lGGFSAAAAASh#+4tyytq90pagggar1o#hBcy@.",
".#hZFh#+1paakakat05222:&o#jSAAAAAAAAAh$o#>13240yaggggar1+%hBcp@.",
".#hAAh#+1rakakkaaiiuut9:+#hSSAAAAAAAAh#o16ypppaagggggay1+#gFBa#.",
".#gFAh#+1raakaakgggggar1+#hSFFSSAAAAAh$+1raaagggggggaar1O#hBAh$.",
".#hFFh#+1raaaakagggggir1+#hFIYFAAAAAAh#+1raggggggggghar1+#hFFh#.",
".#aBBh#O1raakaahdagggar1+#hFYYFAAABMMd#O1ragggggaaggaar,+#gFBh#.",
".@pcBh#+1raggggauuaggae1+#hAFFAAABckky@+1raggggauuaggae1+#hAAh#.",
".@pcBj#+1raggggartdggar1O#hABBAAABkggw@+1eaggggatuagdae1+#hASh#.",
".#aBAh#+1raggggdaadggar1+#hBccBAAMkggr@+1eagggggaaajgae1+#hAAh#.",
".#hBFh#+1raggggdaiiuur6:O$hBccBAABckku@O:9tyuuupaggggar1+#hSAh#.",
".#hFBh#+1raggggp622222>#o#hZBBBAAZBMBd#o#:222228aggggar1O#hAAh#.",
".#hBFh#O1rpggapyrqq0899,O#aMMBBBMMMMMd#o,888qwqwupaggar1+$hAAh#.",
".#hFFg#+1ragfp7wbSSVvclp#@ukkkkkjkkkly@@ixxnVZZvr9iggar1+#hAAj#.",
".#hBAh$+1raaywwdSYDVvlcp#@4wwreewwwww6@$pxxvVDYSdqwtaar1+#hAAh#.",
".#hFFh#+1ray=2cFFMs09882&@@@@@@@@@@@@@@*36600aNFFl3=yaw1+#hAAh#.",
".#aFBh#+1rpr@=nGng0233223>@++++++++O+@:3133320gMGn*@wpr1O$hAAh#.",
".*hAFa#+1eaw@#kMi0tuiiuiir411111111116rppuuupy0uBl#@war1+#hAAh#.",
".#hFFh#+1eaw@#axq9idtwrer63111111111,46rwrryap6wca#@rpw1+#dBZh#.",
".*aBFh#+1raw@@ygppay=@@@@@++O+++o+++++@@@@@=yappgp@@rar1+@pcBh#.",
".*kFMa#+1ray$#60rrr6#OOO++++++++++OO++++OOO#6rwrw6@$rar1+@yvBh#.",
".*hBkp@+1eap6>#@@@@@:1111111111111111111>11:#@@@@#-6par,+#aBAh#.",
".*hMcp@+1eaay6#O++O#6rr0660rrrrrrrrrr066err6@+O+O@4paar,O#hBFh#.",
".#kAMa#+1ragap61,113yaap33raaaaaaaaaar33paap611,16yaaay1O#hFBj*.",
".#hAFh#+1raggayrwwrpaaap63rpuuuuuuuupr36pjaaprrrryaagar1+#gFFa#.",
".#hAAh$+1raghaaaaaaaajaae613221131131330pajaapaaaaajgaw1+#hFFk#.",
".#aMMd#+1raagggaggggjajau61>>>>:>>::110paaahaaaaagggaar1O#aBMa#.",
".@yhhp@+3raaghgghggggggaau666666664439paakajgaprajgggar1+@ylhp@.",
".@6pp6++1rahgaaaagggggggaaurrrrrrrrr0paakajagarpahhagar1++8yp6o.",
".o-<<$o+1raajapyahggggahjaaaaaaaaaaaaaaaaaahggaaahahgaw1+o%33-o.",
".o6pyq5<130rr6330wwwwwwwrryrerwwreeewwpwpwwpwwwwrrrrw03,<7wyw6+.",
".;bEEUJb,+@@@@o+@@@@@@@@@@@@@@@@@@@@@@@@@@@@@@@@@@@@@@+<bPEEEb%.",
".;K)(((H,o@$$-;;---$$######$######$#####$$$-$$$----=$@o;H((()J<.",
".;K(~!!C-@ycnNNNVVBBlhhhhhghhhghhhhhhhhhhlnMllnNNNNnlw@;C!!~(J<.",
".5K(!QQN-#aAIRRRRRRGFANBBAAFBFAAAAAAAAAAAFYGFFYRRRRISf#;NQQ!(J<.",
".;P(!QQN-#pcAGGGGGGFFBxxBFBFFAAFAAAAAAAAAFFFAFFGFGGZvy@;NQQ!(K<.",
".;bKCNNf#o2pdhhhhhhhhappghhhhhghhhhhhhhhhhhhhhhhhhhay5+#fNNCHb;.",
"  ;;---#XXo@###$#####@@@#########################$$#@oXo#;;;;;  ",
"  .....................................X.....................X  "
};
